<svg class="main-svg" xmlns="http://www.w3.org/2000/svg" xmlns:xlink="http://www.w3.org/1999/xlink" width="900" height="550" style="" viewBox="0 0 900 550"><rect x="0" y="0" width="900" height="550" style="fill: rgb(255, 255, 255); fill-opacity: 1;"/><defs id="defs-65bd13"><g class="clips"><clipPath id="clip65bd13xyplot" class="plotclip"><rect width="740" height="328"/></clipPath><clipPath class="axesclip" id="clip65bd13x"><rect x="80" y="0" width="740" height="550"/></clipPath><clipPath class="axesclip" id="clip65bd13y"><rect x="0" y="160" width="900" height="328"/></clipPath><clipPath class="axesclip" id="clip65bd13xy"><rect x="80" y="160" width="740" height="328"/></clipPath></g><g class="gradients"/><g class="patterns"/></defs><g class="bglayer"><rect class="bg" x="80" y="160" width="740" height="328" style="fill: rgb(209, 226, 243); fill-opacity: 0.1; stroke-width: 0;"/></g><g class="layer-below"><g class="imagelayer"/><g class="shapelayer"/></g><g class="cartesianlayer"><g class="subplot xy"><g class="layer-subplot"><g class="shapelayer"/><g class="imagelayer"/></g><g class="minor-gridlayer"><g class="x"/><g class="y"/></g><g class="gridlayer"><g class="x"/><g class="y"><path class="ygrid crisp" transform="translate(0,421.57)" d="M80,0h740" style="stroke: rgb(9, 63, 129); stroke-opacity: 0.1; stroke-width: 1px;"/><path class="ygrid crisp" transform="translate(0,372.94)" d="M80,0h740" style="stroke: rgb(9, 63, 129); stroke-opacity: 0.1; stroke-width: 1px;"/><path class="ygrid crisp" transform="translate(0,324.32)" d="M80,0h740" style="stroke: rgb(9, 63, 129); stroke-opacity: 0.1; stroke-width: 1px;"/><path class="ygrid crisp" transform="translate(0,275.69)" d="M80,0h740" style="stroke: rgb(9, 63, 129); stroke-opacity: 0.1; stroke-width: 1px;"/><path class="ygrid crisp" transform="translate(0,227.07)" d="M80,0h740" style="stroke: rgb(9, 63, 129); stroke-opacity: 0.1; stroke-width: 1px;"/><path class="ygrid crisp" transform="translate(0,178.44)" d="M80,0h740" style="stroke: rgb(9, 63, 129); stroke-opacity: 0.1; stroke-width: 1px;"/></g></g><g class="zerolinelayer"><path class="yzl zl crisp" transform="translate(0,470.2)" d="M80,0h740" style="stroke: rgb(235, 240, 248); stroke-opacity: 1; stroke-width: 2px;"/></g><g class="layer-between"><g class="shapelayer"/><g class="imagelayer"/></g><path class="xlines-below"/><path class="ylines-below"/><g class="overlines-below"/><g class="xaxislayer-below"/><g class="yaxislayer-below"/><g class="overaxes-below"/><g class="overplot"><g class="xy" transform="translate(80,160)" clip-path="url(#clip65bd13xyplot)"><g class="scatterlayer mlayer"><g class="trace scatter tracee6ef19" style="stroke-miterlimit: 2; opacity: 1;"><g class="fills"/><g class="errorbars"/><g class="lines"><path class="js-line" d="M42,101.61L173.2,149.41L304.4,258.3L435.6,292.34L566.8,292.59L698,281.72" style="vector-effect: none; fill: none; stroke: rgb(127, 60, 141); stroke-opacity: 1; stroke-width: 3px; opacity: 1;"/></g><g class="points"><path class="point" transform="translate(42,101.61)" d="M4,0A4,4 0 1,1 0,-4A4,4 0 0,1 4,0Z" style="opacity: 1; stroke-width: 0px; fill: rgb(127, 60, 141); fill-opacity: 1;"/><path class="point" transform="translate(173.2,149.41)" d="M4,0A4,4 0 1,1 0,-4A4,4 0 0,1 4,0Z" style="opacity: 1; stroke-width: 0px; fill: rgb(127, 60, 141); fill-opacity: 1;"/><path class="point" transform="translate(304.4,258.3)" d="M4,0A4,4 0 1,1 0,-4A4,4 0 0,1 4,0Z" style="opacity: 1; stroke-width: 0px; fill: rgb(127, 60, 141); fill-opacity: 1;"/><path class="point" transform="translate(435.6,292.34)" d="M4,0A4,4 0 1,1 0,-4A4,4 0 0,1 4,0Z" style="opacity: 1; stroke-width: 0px; fill: rgb(127, 60, 141); fill-opacity: 1;"/><path class="point" transform="translate(566.8,292.59)" d="M4,0A4,4 0 1,1 0,-4A4,4 0 0,1 4,0Z" style="opacity: 1; stroke-width: 0px; fill: rgb(127, 60, 141); fill-opacity: 1;"/><path class="point" transform="translate(698,281.72)" d="M4,0A4,4 0 1,1 0,-4A4,4 0 0,1 4,0Z" style="opacity: 1; stroke-width: 0px; fill: rgb(127, 60, 141); fill-opacity: 1;"/></g><g class="text"/></g><g class="trace scatter traced56713" style="stroke-miterlimit: 2; opacity: 1;"><g class="fills"/><g class="errorbars"/><g class="lines"><path class="js-line" d="M42,102.99L173.2,151.45L304.4,256.71L435.6,290.5L566.8,292.59L698,281.8" style="vector-effect: none; fill: none; stroke: rgb(127, 60, 141); stroke-opacity: 1; stroke-dasharray: 9px, 9px; stroke-width: 3px; opacity: 1;"/></g><g class="points"><path class="point" transform="translate(42,102.99)" d="M4,0A4,4 0 1,1 0,-4A4,4 0 0,1 4,0Z" style="opacity: 1; stroke-width: 0px; fill: rgb(127, 60, 141); fill-opacity: 1;"/><path class="point" transform="translate(173.2,151.45)" d="M4,0A4,4 0 1,1 0,-4A4,4 0 0,1 4,0Z" style="opacity: 1; stroke-width: 0px; fill: rgb(127, 60, 141); fill-opacity: 1;"/><path class="point" transform="translate(304.4,256.71)" d="M4,0A4,4 0 1,1 0,-4A4,4 0 0,1 4,0Z" style="opacity: 1; stroke-width: 0px; fill: rgb(127, 60, 141); fill-opacity: 1;"/><path class="point" transform="translate(435.6,290.5)" d="M4,0A4,4 0 1,1 0,-4A4,4 0 0,1 4,0Z" style="opacity: 1; stroke-width: 0px; fill: rgb(127, 60, 141); fill-opacity: 1;"/><path class="point" transform="translate(566.8,292.59)" d="M4,0A4,4 0 1,1 0,-4A4,4 0 0,1 4,0Z" style="opacity: 1; stroke-width: 0px; fill: rgb(127, 60, 141); fill-opacity: 1;"/><path class="point" transform="translate(698,281.8)" d="M4,0A4,4 0 1,1 0,-4A4,4 0 0,1 4,0Z" style="opacity: 1; stroke-width: 0px; fill: rgb(127, 60, 141); fill-opacity: 1;"/></g><g class="text"/></g><g class="trace scatter trace04d6fa" style="stroke-miterlimit: 2; opacity: 1;"><g class="fills"/><g class="errorbars"/><g class="lines"><path class="js-line" d="M42,84.63L173.2,204.35L304.4,275.11L435.6,287.82L566.8,230.24L698,294.18" style="vector-effect: none; fill: none; stroke: rgb(17, 165, 121); stroke-opacity: 1; stroke-width: 3px; opacity: 1;"/></g><g class="points"><path class="point" transform="translate(42,84.63)" d="M4,0A4,4 0 1,1 0,-4A4,4 0 0,1 4,0Z" style="opacity: 1; stroke-width: 0px; fill: rgb(17, 165, 121); fill-opacity: 1;"/><path class="point" transform="translate(173.2,204.35)" d="M4,0A4,4 0 1,1 0,-4A4,4 0 0,1 4,0Z" style="opacity: 1; stroke-width: 0px; fill: rgb(17, 165, 121); fill-opacity: 1;"/><path class="point" transform="translate(304.4,275.11)" d="M4,0A4,4 0 1,1 0,-4A4,4 0 0,1 4,0Z" style="opacity: 1; stroke-width: 0px; fill: rgb(17, 165, 121); fill-opacity: 1;"/><path class="point" transform="translate(435.6,287.82)" d="M4,0A4,4 0 1,1 0,-4A4,4 0 0,1 4,0Z" style="opacity: 1; stroke-width: 0px; fill: rgb(17, 165, 121); fill-opacity: 1;"/><path class="point" transform="translate(566.8,230.24)" d="M4,0A4,4 0 1,1 0,-4A4,4 0 0,1 4,0Z" style="opacity: 1; stroke-width: 0px; fill: rgb(17, 165, 121); fill-opacity: 1;"/><path class="point" transform="translate(698,294.18)" d="M4,0A4,4 0 1,1 0,-4A4,4 0 0,1 4,0Z" style="opacity: 1; stroke-width: 0px; fill: rgb(17, 165, 121); fill-opacity: 1;"/></g><g class="text"/></g><g class="trace scatter tracea9ce42" style="stroke-miterlimit: 2; opacity: 1;"><g class="fills"/><g class="errorbars"/><g class="lines"><path class="js-line" d="M42,101.61L173.2,206.49L304.4,251.27L435.6,289.83L566.8,232.16L698,294.89" style="vector-effect: none; fill: none; stroke: rgb(17, 165, 121); stroke-opacity: 1; stroke-dasharray: 9px, 9px; stroke-width: 3px; opacity: 1;"/></g><g class="points"><path class="point" transform="translate(42,101.61)" d="M4,0A4,4 0 1,1 0,-4A4,4 0 0,1 4,0Z" style="opacity: 1; stroke-width: 0px; fill: rgb(17, 165, 121); fill-opacity: 1;"/><path class="point" transform="translate(173.2,206.49)" d="M4,0A4,4 0 1,1 0,-4A4,4 0 0,1 4,0Z" style="opacity: 1; stroke-width: 0px; fill: rgb(17, 165, 121); fill-opacity: 1;"/><path class="point" transform="translate(304.4,251.27)" d="M4,0A4,4 0 1,1 0,-4A4,4 0 0,1 4,0Z" style="opacity: 1; stroke-width: 0px; fill: rgb(17, 165, 121); fill-opacity: 1;"/><path class="point" transform="translate(435.6,289.83)" d="M4,0A4,4 0 1,1 0,-4A4,4 0 0,1 4,0Z" style="opacity: 1; stroke-width: 0px; fill: rgb(17, 165, 121); fill-opacity: 1;"/><path class="point" transform="translate(566.8,232.16)" d="M4,0A4,4 0 1,1 0,-4A4,4 0 0,1 4,0Z" style="opacity: 1; stroke-width: 0px; fill: rgb(17, 165, 121); fill-opacity: 1;"/><path class="point" transform="translate(698,294.89)" d="M4,0A4,4 0 1,1 0,-4A4,4 0 0,1 4,0Z" style="opacity: 1; stroke-width: 0px; fill: rgb(17, 165, 121); fill-opacity: 1;"/></g><g class="text"/></g><g class="trace scatter trace8c7d63" style="stroke-miterlimit: 2; opacity: 1;"><g class="fills"/><g class="errorbars"/><g class="lines"><path class="js-line" d="M42,76.43L173.2,243.58L304.4,288.53L435.6,291.25L566.8,178.18L698,298.07" style="vector-effect: none; fill: none; stroke: rgb(57, 105, 172); stroke-opacity: 1; stroke-width: 3px; opacity: 1;"/></g><g class="points"><path class="point" transform="translate(42,76.43)" d="M4,0A4,4 0 1,1 0,-4A4,4 0 0,1 4,0Z" style="opacity: 1; stroke-width: 0px; fill: rgb(57, 105, 172); fill-opacity: 1;"/><path class="point" transform="translate(173.2,243.58)" d="M4,0A4,4 0 1,1 0,-4A4,4 0 0,1 4,0Z" style="opacity: 1; stroke-width: 0px; fill: rgb(57, 105, 172); fill-opacity: 1;"/><path class="point" transform="translate(304.4,288.53)" d="M4,0A4,4 0 1,1 0,-4A4,4 0 0,1 4,0Z" style="opacity: 1; stroke-width: 0px; fill: rgb(57, 105, 172); fill-opacity: 1;"/><path class="point" transform="translate(435.6,291.25)" d="M4,0A4,4 0 1,1 0,-4A4,4 0 0,1 4,0Z" style="opacity: 1; stroke-width: 0px; fill: rgb(57, 105, 172); fill-opacity: 1;"/><path class="point" transform="translate(566.8,178.18)" d="M4,0A4,4 0 1,1 0,-4A4,4 0 0,1 4,0Z" style="opacity: 1; stroke-width: 0px; fill: rgb(57, 105, 172); fill-opacity: 1;"/><path class="point" transform="translate(698,298.07)" d="M4,0A4,4 0 1,1 0,-4A4,4 0 0,1 4,0Z" style="opacity: 1; stroke-width: 0px; fill: rgb(57, 105, 172); fill-opacity: 1;"/></g><g class="text"/></g><g class="trace scatter tracebcf723" style="stroke-miterlimit: 2; opacity: 1;"><g class="fills"/><g class="errorbars"/><g class="lines"><path class="js-line" d="M42,79.28L173.2,240.23L304.4,288.33L435.6,290.25L566.8,180.31L698,297.99" style="vector-effect: none; fill: none; stroke: rgb(57, 105, 172); stroke-opacity: 1; stroke-dasharray: 9px, 9px; stroke-width: 3px; opacity: 1;"/></g><g class="points"><path class="point" transform="translate(42,79.28)" d="M4,0A4,4 0 1,1 0,-4A4,4 0 0,1 4,0Z" style="opacity: 1; stroke-width: 0px; fill: rgb(57, 105, 172); fill-opacity: 1;"/><path class="point" transform="translate(173.2,240.23)" d="M4,0A4,4 0 1,1 0,-4A4,4 0 0,1 4,0Z" style="opacity: 1; stroke-width: 0px; fill: rgb(57, 105, 172); fill-opacity: 1;"/><path class="point" transform="translate(304.4,288.33)" d="M4,0A4,4 0 1,1 0,-4A4,4 0 0,1 4,0Z" style="opacity: 1; stroke-width: 0px; fill: rgb(57, 105, 172); fill-opacity: 1;"/><path class="point" transform="translate(435.6,290.25)" d="M4,0A4,4 0 1,1 0,-4A4,4 0 0,1 4,0Z" style="opacity: 1; stroke-width: 0px; fill: rgb(57, 105, 172); fill-opacity: 1;"/><path class="point" transform="translate(566.8,180.31)" d="M4,0A4,4 0 1,1 0,-4A4,4 0 0,1 4,0Z" style="opacity: 1; stroke-width: 0px; fill: rgb(57, 105, 172); fill-opacity: 1;"/><path class="point" transform="translate(698,297.99)" d="M4,0A4,4 0 1,1 0,-4A4,4 0 0,1 4,0Z" style="opacity: 1; stroke-width: 0px; fill: rgb(57, 105, 172); fill-opacity: 1;"/></g><g class="text"/></g><g class="trace scatter trace57f635" style="stroke-miterlimit: 2; opacity: 1;"><g class="fills"/><g class="errorbars"/><g class="lines"><path class="js-line" d="M42,109.93L173.2,272.06L304.4,297.61L435.6,293.05L566.8,97.51L698,305.39" style="vector-effect: none; fill: none; stroke: rgb(242, 183, 1); stroke-opacity: 1; stroke-width: 3px; opacity: 1;"/></g><g class="points"><path class="point" transform="translate(42,109.93)" d="M4,0A4,4 0 1,1 0,-4A4,4 0 0,1 4,0Z" style="opacity: 1; stroke-width: 0px; fill: rgb(242, 183, 1); fill-opacity: 1;"/><path class="point" transform="translate(173.2,272.06)" d="M4,0A4,4 0 1,1 0,-4A4,4 0 0,1 4,0Z" style="opacity: 1; stroke-width: 0px; fill: rgb(242, 183, 1); fill-opacity: 1;"/><path class="point" transform="translate(304.4,297.61)" d="M4,0A4,4 0 1,1 0,-4A4,4 0 0,1 4,0Z" style="opacity: 1; stroke-width: 0px; fill: rgb(242, 183, 1); fill-opacity: 1;"/><path class="point" transform="translate(435.6,293.05)" d="M4,0A4,4 0 1,1 0,-4A4,4 0 0,1 4,0Z" style="opacity: 1; stroke-width: 0px; fill: rgb(242, 183, 1); fill-opacity: 1;"/><path class="point" transform="translate(566.8,97.51)" d="M4,0A4,4 0 1,1 0,-4A4,4 0 0,1 4,0Z" style="opacity: 1; stroke-width: 0px; fill: rgb(242, 183, 1); fill-opacity: 1;"/><path class="point" transform="translate(698,305.39)" d="M4,0A4,4 0 1,1 0,-4A4,4 0 0,1 4,0Z" style="opacity: 1; stroke-width: 0px; fill: rgb(242, 183, 1); fill-opacity: 1;"/></g><g class="text"/></g><g class="trace scatter tracef845e6" style="stroke-miterlimit: 2; opacity: 1;"><g class="fills"/><g class="errorbars"/><g class="lines"><path class="js-line" d="M42,113.44L173.2,270.68L304.4,297.82L435.6,291.92L566.8,98.22L698,303.59" style="vector-effect: none; fill: none; stroke: rgb(242, 183, 1); stroke-opacity: 1; stroke-dasharray: 9px, 9px; stroke-width: 3px; opacity: 1;"/></g><g class="points"><path class="point" transform="translate(42,113.44)" d="M4,0A4,4 0 1,1 0,-4A4,4 0 0,1 4,0Z" style="opacity: 1; stroke-width: 0px; fill: rgb(242, 183, 1); fill-opacity: 1;"/><path class="point" transform="translate(173.2,270.68)" d="M4,0A4,4 0 1,1 0,-4A4,4 0 0,1 4,0Z" style="opacity: 1; stroke-width: 0px; fill: rgb(242, 183, 1); fill-opacity: 1;"/><path class="point" transform="translate(304.4,297.82)" d="M4,0A4,4 0 1,1 0,-4A4,4 0 0,1 4,0Z" style="opacity: 1; stroke-width: 0px; fill: rgb(242, 183, 1); fill-opacity: 1;"/><path class="point" transform="translate(435.6,291.92)" d="M4,0A4,4 0 1,1 0,-4A4,4 0 0,1 4,0Z" style="opacity: 1; stroke-width: 0px; fill: rgb(242, 183, 1); fill-opacity: 1;"/><path class="point" transform="translate(566.8,98.22)" d="M4,0A4,4 0 1,1 0,-4A4,4 0 0,1 4,0Z" style="opacity: 1; stroke-width: 0px; fill: rgb(242, 183, 1); fill-opacity: 1;"/><path class="point" transform="translate(698,303.59)" d="M4,0A4,4 0 1,1 0,-4A4,4 0 0,1 4,0Z" style="opacity: 1; stroke-width: 0px; fill: rgb(242, 183, 1); fill-opacity: 1;"/></g><g class="text"/></g><g class="trace scatter trace4508df" style="stroke-miterlimit: 2; opacity: 1;"><g class="fills"/><g class="errorbars"/><g class="lines"><path class="js-line" d="M42,153.8L173.2,290.54L304.4,303.92L435.6,297.9L566.8,22.49L698,306.6" style="vector-effect: none; fill: none; stroke: rgb(231, 63, 116); stroke-opacity: 1; stroke-width: 3px; opacity: 1;"/></g><g class="points"><path class="point" transform="translate(42,153.8)" d="M4,0A4,4 0 1,1 0,-4A4,4 0 0,1 4,0Z" style="opacity: 1; stroke-width: 0px; fill: rgb(231, 63, 116); fill-opacity: 1;"/><path class="point" transform="translate(173.2,290.54)" d="M4,0A4,4 0 1,1 0,-4A4,4 0 0,1 4,0Z" style="opacity: 1; stroke-width: 0px; fill: rgb(231, 63, 116); fill-opacity: 1;"/><path class="point" transform="translate(304.4,303.92)" d="M4,0A4,4 0 1,1 0,-4A4,4 0 0,1 4,0Z" style="opacity: 1; stroke-width: 0px; fill: rgb(231, 63, 116); fill-opacity: 1;"/><path class="point" transform="translate(435.6,297.9)" d="M4,0A4,4 0 1,1 0,-4A4,4 0 0,1 4,0Z" style="opacity: 1; stroke-width: 0px; fill: rgb(231, 63, 116); fill-opacity: 1;"/><path class="point" transform="translate(566.8,22.49)" d="M4,0A4,4 0 1,1 0,-4A4,4 0 0,1 4,0Z" style="opacity: 1; stroke-width: 0px; fill: rgb(231, 63, 116); fill-opacity: 1;"/><path class="point" transform="translate(698,306.6)" d="M4,0A4,4 0 1,1 0,-4A4,4 0 0,1 4,0Z" style="opacity: 1; stroke-width: 0px; fill: rgb(231, 63, 116); fill-opacity: 1;"/></g><g class="text"/></g><g class="trace scatter tracee26a2d" style="stroke-miterlimit: 2; opacity: 1;"><g class="fills"/><g class="errorbars"/><g class="lines"><path class="js-line" d="M42,154.21L173.2,290.42L304.4,305.05L435.6,298.24L566.8,21.4L698,306.39" style="vector-effect: none; fill: none; stroke: rgb(231, 63, 116); stroke-opacity: 1; stroke-dasharray: 9px, 9px; stroke-width: 3px; opacity: 1;"/></g><g class="points"><path class="point" transform="translate(42,154.21)" d="M4,0A4,4 0 1,1 0,-4A4,4 0 0,1 4,0Z" style="opacity: 1; stroke-width: 0px; fill: rgb(231, 63, 116); fill-opacity: 1;"/><path class="point" transform="translate(173.2,290.42)" d="M4,0A4,4 0 1,1 0,-4A4,4 0 0,1 4,0Z" style="opacity: 1; stroke-width: 0px; fill: rgb(231, 63, 116); fill-opacity: 1;"/><path class="point" transform="translate(304.4,305.05)" d="M4,0A4,4 0 1,1 0,-4A4,4 0 0,1 4,0Z" style="opacity: 1; stroke-width: 0px; fill: rgb(231, 63, 116); fill-opacity: 1;"/><path class="point" transform="translate(435.6,298.24)" d="M4,0A4,4 0 1,1 0,-4A4,4 0 0,1 4,0Z" style="opacity: 1; stroke-width: 0px; fill: rgb(231, 63, 116); fill-opacity: 1;"/><path class="point" transform="translate(566.8,21.4)" d="M4,0A4,4 0 1,1 0,-4A4,4 0 0,1 4,0Z" style="opacity: 1; stroke-width: 0px; fill: rgb(231, 63, 116); fill-opacity: 1;"/><path class="point" transform="translate(698,306.39)" d="M4,0A4,4 0 1,1 0,-4A4,4 0 0,1 4,0Z" style="opacity: 1; stroke-width: 0px; fill: rgb(231, 63, 116); fill-opacity: 1;"/></g><g class="text"/></g></g></g></g><path class="xlines-above crisp" d="M79,488.5H820" style="fill: none; stroke-width: 1px; stroke: rgb(9, 63, 129); stroke-opacity: 1;"/><path class="ylines-above crisp" d="M79.5,160V488" style="fill: none; stroke-width: 1px; stroke: rgb(9, 63, 129); stroke-opacity: 1;"/><g class="overlines-above"/><g class="xaxislayer-above"><g class="xtick"><text text-anchor="middle" x="0" y="507" transform="translate(122,0)" style="font-family: Arial, sans-serif; font-size: 15px; fill: rgb(42, 63, 95); fill-opacity: 1; white-space: pre; opacity: 1;">Logic</text></g><g class="xtick"><text text-anchor="middle" x="0" y="507" transform="translate(253.2,0)" style="font-family: Arial, sans-serif; font-size: 15px; fill: rgb(42, 63, 95); fill-opacity: 1; white-space: pre; opacity: 1;">Data Compliance</text></g><g class="xtick"><text text-anchor="middle" x="0" y="507" transform="translate(384.4,0)" style="font-family: Arial, sans-serif; font-size: 15px; fill: rgb(42, 63, 95); fill-opacity: 1; white-space: pre; opacity: 1;">Identification</text></g><g class="xtick"><text text-anchor="middle" x="0" y="507" transform="translate(515.6,0)" style="font-family: Arial, sans-serif; font-size: 15px; fill: rgb(42, 63, 95); fill-opacity: 1; white-space: pre; opacity: 1;">Structural Access</text></g><g class="xtick"><text text-anchor="middle" x="0" y="507" transform="translate(646.8,0)" style="font-family: Arial, sans-serif; font-size: 15px; fill: rgb(42, 63, 95); fill-opacity: 1; white-space: pre; opacity: 1;">Correct</text></g><g class="xtick"><text text-anchor="middle" x="0" y="507" transform="translate(778,0)" style="font-family: Arial, sans-serif; font-size: 15px; fill: rgb(42, 63, 95); fill-opacity: 1; white-space: pre; opacity: 1;">Other</text></g></g><g class="yaxislayer-above"><g class="ytick"><text text-anchor="end" x="76" y="5.25" transform="translate(0,470.2)" style="font-family: Arial, sans-serif; font-size: 15px; fill: rgb(42, 63, 95); fill-opacity: 1; white-space: pre; opacity: 1;">0</text></g><g class="ytick"><text text-anchor="end" x="76" y="5.25" style="font-family: Arial, sans-serif; font-size: 15px; fill: rgb(42, 63, 95); fill-opacity: 1; white-space: pre; opacity: 1;" transform="translate(0,421.57)">10</text></g><g class="ytick"><text text-anchor="end" x="76" y="5.25" style="font-family: Arial, sans-serif; font-size: 15px; fill: rgb(42, 63, 95); fill-opacity: 1; white-space: pre; opacity: 1;" transform="translate(0,372.94)">20</text></g><g class="ytick"><text text-anchor="end" x="76" y="5.25" style="font-family: Arial, sans-serif; font-size: 15px; fill: rgb(42, 63, 95); fill-opacity: 1; white-space: pre; opacity: 1;" transform="translate(0,324.32)">30</text></g><g class="ytick"><text text-anchor="end" x="76" y="5.25" style="font-family: Arial, sans-serif; font-size: 15px; fill: rgb(42, 63, 95); fill-opacity: 1; white-space: pre; opacity: 1;" transform="translate(0,275.69)">40</text></g><g class="ytick"><text text-anchor="end" x="76" y="5.25" style="font-family: Arial, sans-serif; font-size: 15px; fill: rgb(42, 63, 95); fill-opacity: 1; white-space: pre; opacity: 1;" transform="translate(0,227.07)">50</text></g><g class="ytick"><text text-anchor="end" x="76" y="5.25" style="font-family: Arial, sans-serif; font-size: 15px; fill: rgb(42, 63, 95); fill-opacity: 1; white-space: pre; opacity: 1;" transform="translate(0,178.44)">60</text></g></g><g class="overaxes-above"/></g></g><g class="polarlayer"/><g class="smithlayer"/><g class="ternarylayer"/><g class="geolayer"/><g class="funnelarealayer"/><g class="pielayer"/><g class="iciclelayer"/><g class="treemaplayer"/><g class="sunburstlayer"/><g class="glimages"/><defs id="topdefs-65bd13"><g class="clips"/><clipPath id="legend65bd13"><rect width="597" height="82" x="0" y="0"/></clipPath></defs><g class="layer-above"><g class="imagelayer"/><g class="shapelayer"/></g><g class="infolayer"><g class="legend" pointer-events="all" transform="translate(151.5,94.40000000000002)"><rect class="bg" shape-rendering="crispEdges" style="stroke: rgb(68, 68, 68); stroke-opacity: 1; fill: rgb(255, 255, 255); fill-opacity: 0.8; stroke-width: 0px;" width="597" height="82" x="0" y="0"/><g class="scrollbox" transform="" clip-path="url(#legend65bd13)"><g class="groups"><g class="traces" transform="translate(0,16.9)" style="opacity: 1;"><text class="legendtext" text-anchor="start" x="40" y="6.24" style="font-family: Arial, sans-serif; font-size: 16px; fill: rgb(42, 63, 95); fill-opacity: 1; white-space: pre;">Qwen-0.5B V1</text><g class="layers" style="opacity: 1;"><g class="legendfill"/><g class="legendlines"><path class="js-line" d="M5,0h30" style="fill: none; stroke: rgb(127, 60, 141); stroke-opacity: 1; stroke-width: 3px;"/></g><g class="legendsymbols"><g class="legendpoints"><path class="scatterpts" transform="translate(20,0)" d="M4,0A4,4 0 1,1 0,-4A4,4 0 0,1 4,0Z" style="opacity: 1; stroke-width: 0px; fill: rgb(127, 60, 141); fill-opacity: 1;"/></g></g></g><rect class="legendtoggle" x="0" y="-11.9" width="146.5625" height="23.8" style="fill: rgb(0, 0, 0); fill-opacity: 0;"/></g><g class="traces" transform="translate(149.0625,16.9)" style="opacity: 1;"><text class="legendtext" text-anchor="start" x="40" y="6.24" style="font-family: Arial, sans-serif; font-size: 16px; fill: rgb(42, 63, 95); fill-opacity: 1; white-space: pre;">Qwen-0.5B V2</text><g class="layers" style="opacity: 1;"><g class="legendfill"/><g class="legendlines"><path class="js-line" d="M5,0h30" style="fill: none; stroke: rgb(127, 60, 141); stroke-opacity: 1; stroke-dasharray: 9px, 9px; stroke-width: 3px;"/></g><g class="legendsymbols"><g class="legendpoints"><path class="scatterpts" transform="translate(20,0)" d="M4,0A4,4 0 1,1 0,-4A4,4 0 0,1 4,0Z" style="opacity: 1; stroke-width: 0px; fill: rgb(127, 60, 141); fill-opacity: 1;"/></g></g></g><rect class="legendtoggle" x="0" y="-11.9" width="146.5625" height="23.8" style="fill: rgb(0, 0, 0); fill-opacity: 0;"/></g><g class="traces" transform="translate(298.125,16.9)" style="opacity: 1;"><text class="legendtext" text-anchor="start" x="40" y="6.24" style="font-family: Arial, sans-serif; font-size: 16px; fill: rgb(42, 63, 95); fill-opacity: 1; white-space: pre;">Qwen-1.5B V1</text><g class="layers" style="opacity: 1;"><g class="legendfill"/><g class="legendlines"><path class="js-line" d="M5,0h30" style="fill: none; stroke: rgb(17, 165, 121); stroke-opacity: 1; stroke-width: 3px;"/></g><g class="legendsymbols"><g class="legendpoints"><path class="scatterpts" transform="translate(20,0)" d="M4,0A4,4 0 1,1 0,-4A4,4 0 0,1 4,0Z" style="opacity: 1; stroke-width: 0px; fill: rgb(17, 165, 121); fill-opacity: 1;"/></g></g></g><rect class="legendtoggle" x="0" y="-11.9" width="146.5625" height="23.8" style="fill: rgb(0, 0, 0); fill-opacity: 0;"/></g><g class="traces" transform="translate(447.1875,16.9)" style="opacity: 1;"><text class="legendtext" text-anchor="start" x="40" y="6.24" style="font-family: Arial, sans-serif; font-size: 16px; fill: rgb(42, 63, 95); fill-opacity: 1; white-space: pre;">Qwen-1.5B V2</text><g class="layers" style="opacity: 1;"><g class="legendfill"/><g class="legendlines"><path class="js-line" d="M5,0h30" style="fill: none; stroke: rgb(17, 165, 121); stroke-opacity: 1; stroke-dasharray: 9px, 9px; stroke-width: 3px;"/></g><g class="legendsymbols"><g class="legendpoints"><path class="scatterpts" transform="translate(20,0)" d="M4,0A4,4 0 1,1 0,-4A4,4 0 0,1 4,0Z" style="opacity: 1; stroke-width: 0px; fill: rgb(17, 165, 121); fill-opacity: 1;"/></g></g></g><rect class="legendtoggle" x="0" y="-11.9" width="146.5625" height="23.8" style="fill: rgb(0, 0, 0); fill-opacity: 0;"/></g><g class="traces" transform="translate(0,40.7)" style="opacity: 1;"><text class="legendtext" text-anchor="start" x="40" y="6.24" style="font-family: Arial, sans-serif; font-size: 16px; fill: rgb(42, 63, 95); fill-opacity: 1; white-space: pre;">Qwen-3B V1</text><g class="layers" style="opacity: 1;"><g class="legendfill"/><g class="legendlines"><path class="js-line" d="M5,0h30" style="fill: none; stroke: rgb(57, 105, 172); stroke-opacity: 1; stroke-width: 3px;"/></g><g class="legendsymbols"><g class="legendpoints"><path class="scatterpts" transform="translate(20,0)" d="M4,0A4,4 0 1,1 0,-4A4,4 0 0,1 4,0Z" style="opacity: 1; stroke-width: 0px; fill: rgb(57, 105, 172); fill-opacity: 1;"/></g></g></g><rect class="legendtoggle" x="0" y="-11.9" width="133.21875" height="23.8" style="fill: rgb(0, 0, 0); fill-opacity: 0;"/></g><g class="traces" transform="translate(149.0625,40.7)" style="opacity: 1;"><text class="legendtext" text-anchor="start" x="40" y="6.24" style="font-family: Arial, sans-serif; font-size: 16px; fill: rgb(42, 63, 95); fill-opacity: 1; white-space: pre;">Qwen-3B V2</text><g class="layers" style="opacity: 1;"><g class="legendfill"/><g class="legendlines"><path class="js-line" d="M5,0h30" style="fill: none; stroke: rgb(57, 105, 172); stroke-opacity: 1; stroke-dasharray: 9px, 9px; stroke-width: 3px;"/></g><g class="legendsymbols"><g class="legendpoints"><path class="scatterpts" transform="translate(20,0)" d="M4,0A4,4 0 1,1 0,-4A4,4 0 0,1 4,0Z" style="opacity: 1; stroke-width: 0px; fill: rgb(57, 105, 172); fill-opacity: 1;"/></g></g></g><rect class="legendtoggle" x="0" y="-11.9" width="133.21875" height="23.8" style="fill: rgb(0, 0, 0); fill-opacity: 0;"/></g><g class="traces" transform="translate(298.125,40.7)" style="opacity: 1;"><text class="legendtext" text-anchor="start" x="40" y="6.24" style="font-family: Arial, sans-serif; font-size: 16px; fill: rgb(42, 63, 95); fill-opacity: 1; white-space: pre;">Qwen-7B V1</text><g class="layers" style="opacity: 1;"><g class="legendfill"/><g class="legendlines"><path class="js-line" d="M5,0h30" style="fill: none; stroke: rgb(242, 183, 1); stroke-opacity: 1; stroke-width: 3px;"/></g><g class="legendsymbols"><g class="legendpoints"><path class="scatterpts" transform="translate(20,0)" d="M4,0A4,4 0 1,1 0,-4A4,4 0 0,1 4,0Z" style="opacity: 1; stroke-width: 0px; fill: rgb(242, 183, 1); fill-opacity: 1;"/></g></g></g><rect class="legendtoggle" x="0" y="-11.9" width="133.21875" height="23.8" style="fill: rgb(0, 0, 0); fill-opacity: 0;"/></g><g class="traces" transform="translate(447.1875,40.7)" style="opacity: 1;"><text class="legendtext" text-anchor="start" x="40" y="6.24" style="font-family: Arial, sans-serif; font-size: 16px; fill: rgb(42, 63, 95); fill-opacity: 1; white-space: pre;">Qwen-7B V2</text><g class="layers" style="opacity: 1;"><g class="legendfill"/><g class="legendlines"><path class="js-line" d="M5,0h30" style="fill: none; stroke: rgb(242, 183, 1); stroke-opacity: 1; stroke-dasharray: 9px, 9px; stroke-width: 3px;"/></g><g class="legendsymbols"><g class="legendpoints"><path class="scatterpts" transform="translate(20,0)" d="M4,0A4,4 0 1,1 0,-4A4,4 0 0,1 4,0Z" style="opacity: 1; stroke-width: 0px; fill: rgb(242, 183, 1); fill-opacity: 1;"/></g></g></g><rect class="legendtoggle" x="0" y="-11.9" width="133.21875" height="23.8" style="fill: rgb(0, 0, 0); fill-opacity: 0;"/></g><g class="traces" transform="translate(0,64.5)" style="opacity: 1;"><text class="legendtext" text-anchor="start" x="40" y="6.24" style="font-family: Arial, sans-serif; font-size: 16px; fill: rgb(42, 63, 95); fill-opacity: 1; white-space: pre;">Qwen-14B V1</text><g class="layers" style="opacity: 1;"><g class="legendfill"/><g class="legendlines"><path class="js-line" d="M5,0h30" style="fill: none; stroke: rgb(231, 63, 116); stroke-opacity: 1; stroke-width: 3px;"/></g><g class="legendsymbols"><g class="legendpoints"><path class="scatterpts" transform="translate(20,0)" d="M4,0A4,4 0 1,1 0,-4A4,4 0 0,1 4,0Z" style="opacity: 1; stroke-width: 0px; fill: rgb(231, 63, 116); fill-opacity: 1;"/></g></g></g><rect class="legendtoggle" x="0" y="-11.9" width="142.109375" height="23.8" style="fill: rgb(0, 0, 0); fill-opacity: 0;"/></g><g class="traces" transform="translate(149.0625,64.5)" style="opacity: 1;"><text class="legendtext" text-anchor="start" x="40" y="6.24" style="font-family: Arial, sans-serif; font-size: 16px; fill: rgb(42, 63, 95); fill-opacity: 1; white-space: pre;">Qwen-14B V2</text><g class="layers" style="opacity: 1;"><g class="legendfill"/><g class="legendlines"><path class="js-line" d="M5,0h30" style="fill: none; stroke: rgb(231, 63, 116); stroke-opacity: 1; stroke-dasharray: 9px, 9px; stroke-width: 3px;"/></g><g class="legendsymbols"><g class="legendpoints"><path class="scatterpts" transform="translate(20,0)" d="M4,0A4,4 0 1,1 0,-4A4,4 0 0,1 4,0Z" style="opacity: 1; stroke-width: 0px; fill: rgb(231, 63, 116); fill-opacity: 1;"/></g></g></g><rect class="legendtoggle" x="0" y="-11.9" width="142.109375" height="23.8" style="fill: rgb(0, 0, 0); fill-opacity: 0;"/></g></g></g><rect class="scrollbar" rx="20" ry="3" width="0" height="0" style="fill: rgb(128, 139, 164); fill-opacity: 1;" x="0" y="0"/></g><g class="g-gtitle"><text class="gtitle" x="450" y="80" text-anchor="middle" dy="0em" style="opacity: 1; font-family: Arial, sans-serif; font-size: 20px; fill: rgb(42, 63, 95); fill-opacity: 1; white-space: pre;"><tspan style="font-weight:bold">Hallucination Profile Across Models and Runs</tspan></text></g><g class="g-xtitle"><text class="xtitle" x="450" y="537.25625" text-anchor="middle" style="opacity: 1; font-family: Arial, sans-serif; font-size: 18px; fill: rgb(42, 63, 95); fill-opacity: 1; white-space: pre;">Error Category</text></g><g class="g-ytitle"><text class="ytitle" transform="rotate(-90,38.5125,324)" x="38.5125" y="324" text-anchor="middle" style="opacity: 1; font-family: Arial, sans-serif; font-size: 18px; fill: rgb(42, 63, 95); fill-opacity: 1; white-space: pre;">Percentage (%)</text></g></g></svg>